<?xml version="1.0"?>
<svg xmlns="http://www.w3.org/2000/svg" height="73.5" viewBox="0 0 396.96683 289.95343" width="100" fill="#000000" style="position: absolute; top: 50%; left: 50%; transform: translate(-50%, -50%); display: block; margin: auto;">
    <path d="m144.95341 289.95341a6 6 0 0 1 -5.26-3.12l-48.29-88.29-88.2899997-48.33a6 6 0 0 1 0-10.52l88.2899997-48.29 48.29-88.2899997a6 6 0 0 1 10.52 0l34.05 62.2599997a6 6 0 1 1 -10.53 5.75l-28.78-52.62-43.86 80.2a6 6 0 0 1 -2.39 2.39l-80.24 43.86 80.2 43.86a6 6 0 0 1 2.39 2.39l43.86 80.2 26.07-47.65a6 6 0 1 1 10.52 5.75l-31.33 57.29a6 6 0 0 1 -5.22 3.16z" fill="#FFFFFF"/>
    <path d="m251.97341 289.95341a6 6 0 0 1 -5.26-3.12l-48.25-88.33-88.29-48.29a6 6 0 0 1 0-10.52l88.29-48.29 48.29-88.2899997a6 6 0 0 1 10.52 0l48.29 88.2899997 88.29 48.29a6 6 0 0 1 0 10.52l-88.29 48.29-48.29 88.29a6 6 0 0 1 -5.3 3.16zm-126.46-145 80.21 43.86a6.08 6.08 0 0 1 2.38 2.39l43.87 80.2 43.86-80.2a6 6 0 0 1 2.39-2.39l80.24-43.86-80.2-43.86a6 6 0 0 1 -2.39-2.39l-43.86-80.2-43.87 80.2a6.08 6.08 0 0 1 -2.38 2.39z" fill="#FFFFFF"/>
</svg>